Coordinates
version=1
nRows=18
nColumns=19
inDegrees=yes

Units are S.I. units (second, meters, Newtons, ...)
If the header above contains a line with 'inDegrees', this indicates whether rotational values are in degrees (yes) or radians (no).

endheader
time	pelvis_tilt	pelvis_list	pelvis_rotation	pelvis_tx	pelvis_ty	pelvis_tz	hip_flexion_r	hip_adduction_r	hip_rotation_r	knee_angle_r	knee_angle_r_beta	ankle_angle_r	hip_flexion_l	hip_adduction_l	hip_rotation_l	knee_angle_l	knee_angle_l_beta	ankle_angle_l
     13.23333333	     -2.84234509	      7.79133358	      3.51747431	      2.25806740	      0.98843830	      0.99716138	    -15.27813805	    -12.40448601	    -16.52340768	     67.02084800	      1.16973447	    -19.50359815	     25.66699666	     12.35441584	     -5.85239358	      9.87045585	      0.17227195	     -4.24600654
     13.24000000	     -2.84340762	      8.43275290	      3.78859103	      2.25718117	      0.98294265	      0.99646600	    -13.85431148	    -13.32973160	    -15.87710402	     70.98559782	      1.23893240	    -19.38145497	     26.31059713	     12.84202884	     -7.64686650	     12.91450948	      0.22540071	     -3.66799115
     13.24666667	     -2.06101704	      9.42940316	      4.07884775	      2.25633818	      0.97806232	      0.99603736	    -13.42620288	    -14.57681145	    -15.56097064	     74.72918960	      1.30427041	    -19.17554269	     25.90034873	     13.66563275	     -9.12215470	     15.80664827	      0.27587806	     -2.95976511
     13.25333333	     -2.35129089	      9.81908098	      4.43259959	      2.25492393	      0.97175407	      0.99568495	    -11.42602774	    -15.06879256	    -14.60582066	     78.67620957	      1.37315890	    -18.86272373	     26.97338027	     13.80369609	    -10.44951264	     19.50132919	      0.34036240	     -1.78055952
     13.26000000	     -2.31004804	     10.35205779	      4.83713978	      2.25341285	      0.96571458	      0.99548278	     -9.81956614	    -15.67874696	    -13.83536160	     82.47180012	      1.43940445	    -18.47243551	     27.54384278	     14.12739973	    -11.35895583	     23.08731277	      0.40294962	     -0.34180678
     13.26666667	     -2.35796106	     10.76232346	      5.28005494	      2.25164257	      0.95958721	      0.99538753	     -7.99359851	    -16.10435725	    -12.97950772	     86.19508908	      1.50438810	    -18.02621790	     28.18506731	     14.37016746	    -11.90648625	     26.74078439	      0.46671473	      1.43610471
     13.27333333	     -2.48044973	     11.04627561	      5.75988800	      2.24959973	      0.95350636	      0.99534983	     -5.96333743	    -16.36396698	    -12.07504876	     89.82114966	      1.56767480	    -17.55387869	     28.85450395	     14.55761505	    -12.10060579	     30.37227117	      0.53009613	      3.48472521
     13.28000000	     -2.72107328	     11.25197613	      6.26894078	      2.24734699	      0.94752207	      0.99531233	     -3.69055850	    -16.55963156	    -11.14885217	     93.33774558	      1.62905098	    -17.07360412	     29.55002096	     14.76222869	    -11.98638749	     33.86081449	      0.59098270	      5.75007151
     13.28666667	     -3.01841651	     11.30326317	      6.76920811	      2.24483525	      0.94180758	      0.99531098	     -1.20392712	    -16.57264433	    -10.15311994	     96.70837771	      1.68787961	    -16.62222789	     30.21284842	     14.88203260	    -11.62395578	     37.19410355	      0.64915957	      8.14446466
     13.29333333	     -3.28225482	     11.30440894	      7.22908733	      2.24222474	      0.93656768	      0.99535029	      1.35800605	    -16.55424968	     -9.13497088	     99.88603528	      1.74334019	    -16.23241973	     30.67142267	     15.00602192	    -11.09009066	     40.23618873	      0.70225397	     10.61516607
     13.30000000	     -3.61204516	     11.24508037	      7.62385109	      2.23945413	      0.93172066	      0.99537916	      4.13355146	    -16.50434435	     -8.03874820	    102.88355837	      1.79565684	    -15.86808667	     31.02723037	     15.09923167	    -10.47460326	     42.95204434	      0.74965459	     13.02632192
     13.30666667	     -3.90804757	     11.12132310	      7.92983107	      2.23664151	      0.92745485	      0.99549873	      6.99692827	    -16.38286837	     -6.88279989	    105.63848575	      1.84373939	    -15.55949227	     31.15474403	     15.11539726	     -9.82219163	     45.32316988	      0.79103854	     15.34596351
     13.31333333	     -4.15318689	     10.97536791	      8.12135839	      2.23379880	      0.92381069	      0.99571528	      9.91625096	    -16.22502450	     -5.65781072	    108.14188161	      1.88743189	    -15.26240998	     31.01111030	     15.07204845	     -9.17755052	     47.29827421	      0.82551062	     17.53464409
     13.32000000	     -4.38962661	     10.80375047	      8.23628126	      2.23101222	      0.92077612	      0.99593567	     12.90840916	    -16.05499915	     -4.41868475	    110.35491006	      1.92605653	    -15.10349136	     30.63267266	     14.96653715	     -8.56626445	     48.87959875	      0.85310994	     19.54589742
     13.32666667	     -4.61278859	     10.59940326	      8.25381475	      2.22830953	      0.91836193	      0.99621784	     15.94672615	    -15.81823905	     -3.15474433	    112.26773213	      1.95944157	    -14.90679134	     30.02280259	     14.78818892	     -7.97991001	     50.06456348	      0.87379147	     21.33590347
     13.33333333	     -4.38845800	     10.47277842	      8.22403714	      2.22599800	      0.91716296	      0.99645590	     18.36371135	    -15.69485216	     -2.10460883	    113.73911708	      1.98512208	    -14.57962668	     28.62567927	     14.63248482	     -7.37458427	     50.77526331	      0.88619552	     23.02608726
     13.34000000	     -4.58370624	     10.25864865	      8.00211056	      2.22348326	      0.91594602	      0.99696727	     21.45543668	    -15.33479628	     -0.77944990	    115.03131232	      2.00767514	    -14.37774273	     27.59457196	     14.29074971	     -7.05035501	     51.23654834	      0.89424647	     24.28549517
     13.34666667	     -4.62635582	     10.03433715	      7.82118663	      2.22138049	      0.91559175	      0.99728944	     24.21376278	    -15.03336856	      0.26637446	    115.89680179	      2.02278078	    -14.03549577	     26.15039315	     13.97047966	     -6.61798209	     51.30785795	      0.89549105	     25.40887476
